<svg width="32" height="32" viewBox="0 0 32 32" fill="none" xmlns="http://www.w3.org/2000/svg">
<g clip-path="url(#clip0_1092_10108)">
<path d="M29.9852 16.2622C29.9852 15.1151 29.89 14.278 29.6838 13.4099H16.2789V18.5875H24.1473C23.9887 19.8742 23.1321 21.812 21.2284 23.1141L21.2017 23.2874L25.4401 26.496L25.7337 26.5246C28.4305 24.0908 29.9852 20.5098 29.9852 16.2622" fill="#4285F4"/>
<path d="M16.2789 29.9039C20.1338 29.9039 23.37 28.6637 25.7338 26.5245L21.2284 23.1139C20.0228 23.9355 18.4046 24.5091 16.2789 24.5091C12.5033 24.5091 9.29888 22.0753 8.15657 18.7114L7.98913 18.7253L3.58199 22.0582L3.52435 22.2148C5.87218 26.7724 10.6948 29.9039 16.2789 29.9039Z" fill="#34A853"/>
<path d="M8.15653 18.7115C7.85513 17.8434 7.68069 16.9132 7.68069 15.9521C7.68069 14.9909 7.85513 14.0608 8.14068 13.1927L8.13269 13.0078L3.67032 9.62134L3.52432 9.6892C2.55667 11.5805 2.00143 13.7043 2.00143 15.9521C2.00143 18.1999 2.55667 20.3236 3.52432 22.2149L8.15653 18.7115" fill="#FBBC05"/>
<path d="M16.2789 7.3947C18.9598 7.3947 20.7683 8.52635 21.7995 9.47205L25.8289 5.6275C23.3542 3.37969 20.1337 2 16.2789 2C10.6948 2 5.87217 5.1314 3.52435 9.68899L8.1407 13.1925C9.29886 9.82857 12.5033 7.3947 16.2789 7.3947" fill="#EB4335"/>
</g>
<defs>
<clipPath id="clip0_1092_10108">
<rect width="28" height="28" fill="white" transform="translate(2 2)"/>
</clipPath>
</defs>
</svg>
