<svg width="158" height="34" viewBox="0 0 158 34" fill="none" xmlns="http://www.w3.org/2000/svg">
<path d="M95.1136 26V8.54545H101.011C102.375 8.54545 103.494 8.77841 104.369 9.24432C105.244 9.70454 105.892 10.3381 106.312 11.1449C106.733 11.9517 106.943 12.8693 106.943 13.8977C106.943 14.9261 106.733 15.8381 106.312 16.6335C105.892 17.429 105.247 18.054 104.378 18.5085C103.509 18.9574 102.398 19.1818 101.045 19.1818H96.2727V17.2727H100.977C101.909 17.2727 102.659 17.1364 103.227 16.8636C103.801 16.5909 104.216 16.2045 104.472 15.7045C104.733 15.1989 104.864 14.5966 104.864 13.8977C104.864 13.1989 104.733 12.5881 104.472 12.0653C104.21 11.5426 103.793 11.1392 103.219 10.8551C102.645 10.5653 101.886 10.4205 100.943 10.4205H97.2273V26H95.1136ZM103.33 18.1591L107.625 26H105.17L100.943 18.1591H103.33ZM115.37 26.2727C114.188 26.2727 113.151 25.9915 112.259 25.429C111.373 24.8665 110.68 24.0795 110.18 23.0682C109.685 22.0568 109.438 20.875 109.438 19.5227C109.438 18.1591 109.685 16.9687 110.18 15.9517C110.68 14.9347 111.373 14.1449 112.259 13.5824C113.151 13.0199 114.188 12.7386 115.37 12.7386C116.552 12.7386 117.586 13.0199 118.472 13.5824C119.364 14.1449 120.058 14.9347 120.552 15.9517C121.052 16.9687 121.302 18.1591 121.302 19.5227C121.302 20.875 121.052 22.0568 120.552 23.0682C120.058 24.0795 119.364 24.8665 118.472 25.429C117.586 25.9915 116.552 26.2727 115.37 26.2727ZM115.37 24.4659C116.268 24.4659 117.006 24.2358 117.586 23.7756C118.165 23.3153 118.594 22.7102 118.873 21.9602C119.151 21.2102 119.29 20.3977 119.29 19.5227C119.29 18.6477 119.151 17.8324 118.873 17.0767C118.594 16.321 118.165 15.7102 117.586 15.2443C117.006 14.7784 116.268 14.5455 115.37 14.5455C114.472 14.5455 113.734 14.7784 113.154 15.2443C112.575 15.7102 112.146 16.321 111.867 17.0767C111.589 17.8324 111.45 18.6477 111.45 19.5227C111.45 20.3977 111.589 21.2102 111.867 21.9602C112.146 22.7102 112.575 23.3153 113.154 23.7756C113.734 24.2358 114.472 24.4659 115.37 24.4659ZM129.69 26.2727C128.509 26.2727 127.472 25.9915 126.58 25.429C125.693 24.8665 125 24.0795 124.5 23.0682C124.006 22.0568 123.759 20.875 123.759 19.5227C123.759 18.1591 124.006 16.9687 124.5 15.9517C125 14.9347 125.693 14.1449 126.58 13.5824C127.472 13.0199 128.509 12.7386 129.69 12.7386C130.872 12.7386 131.906 13.0199 132.793 13.5824C133.685 14.1449 134.378 14.9347 134.872 15.9517C135.372 16.9687 135.622 18.1591 135.622 19.5227C135.622 20.875 135.372 22.0568 134.872 23.0682C134.378 24.0795 133.685 24.8665 132.793 25.429C131.906 25.9915 130.872 26.2727 129.69 26.2727ZM129.69 24.4659C130.588 24.4659 131.327 24.2358 131.906 23.7756C132.486 23.3153 132.915 22.7102 133.193 21.9602C133.472 21.2102 133.611 20.3977 133.611 19.5227C133.611 18.6477 133.472 17.8324 133.193 17.0767C132.915 16.321 132.486 15.7102 131.906 15.2443C131.327 14.7784 130.588 14.5455 129.69 14.5455C128.793 14.5455 128.054 14.7784 127.474 15.2443C126.895 15.7102 126.466 16.321 126.188 17.0767C125.909 17.8324 125.77 18.6477 125.77 19.5227C125.77 20.3977 125.909 21.2102 126.188 21.9602C126.466 22.7102 126.895 23.3153 127.474 23.7756C128.054 24.2358 128.793 24.4659 129.69 24.4659ZM138.692 26V12.9091H140.636V14.9545H140.806C141.079 14.2557 141.519 13.7131 142.127 13.3267C142.735 12.9347 143.465 12.7386 144.317 12.7386C145.181 12.7386 145.9 12.9347 146.474 13.3267C147.053 13.7131 147.505 14.2557 147.829 14.9545H147.965C148.3 14.2784 148.803 13.7415 149.474 13.3438C150.144 12.9403 150.948 12.7386 151.886 12.7386C153.056 12.7386 154.013 13.1051 154.758 13.8381C155.502 14.5653 155.874 15.6989 155.874 17.2386V26H153.863V17.2386C153.863 16.2727 153.599 15.5824 153.07 15.1676C152.542 14.7528 151.92 14.5455 151.204 14.5455C150.283 14.5455 149.57 14.8239 149.065 15.3807C148.559 15.9318 148.306 16.6307 148.306 17.4773V26H146.261V17.0341C146.261 16.2898 146.019 15.6903 145.536 15.2358C145.053 14.7756 144.431 14.5455 143.67 14.5455C143.147 14.5455 142.658 14.6847 142.204 14.9631C141.755 15.2415 141.391 15.6278 141.113 16.1222C140.84 16.6108 140.704 17.1761 140.704 17.8182V26H138.692Z" fill="#E4626E"/>
<path d="M95.1136 26H94.1136V27H95.1136V26ZM95.1136 8.54545V7.54545H94.1136V8.54545H95.1136ZM104.369 9.24432L103.899 10.127L103.904 10.1294L104.369 9.24432ZM106.312 11.1449L105.426 11.607L105.426 11.607L106.312 11.1449ZM106.312 16.6335L105.428 16.1662L105.428 16.1662L106.312 16.6335ZM104.378 18.5085L104.837 19.3971L104.841 19.3947L104.378 18.5085ZM96.2727 19.1818H95.2727V20.1818H96.2727V19.1818ZM96.2727 17.2727V16.2727H95.2727V17.2727H96.2727ZM103.227 16.8636L102.798 15.9604L102.795 15.9621L103.227 16.8636ZM104.472 15.7045L103.583 15.2454L103.581 15.2493L104.472 15.7045ZM103.219 10.8551L102.768 11.7478L102.775 11.7513L103.219 10.8551ZM97.2273 10.4205V9.42045H96.2273V10.4205H97.2273ZM97.2273 26V27H98.2273V26H97.2273ZM103.33 18.1591L104.207 17.6786L103.922 17.1591H103.33V18.1591ZM107.625 26V27H109.313L108.502 25.5195L107.625 26ZM105.17 26L104.29 26.4746L104.574 27H105.17V26ZM100.943 18.1591V17.1591H99.268L100.063 18.6336L100.943 18.1591ZM96.1136 26V8.54545H94.1136V26H96.1136ZM95.1136 9.54545H101.011V7.54545H95.1136V9.54545ZM101.011 9.54545C102.27 9.54545 103.213 9.76158 103.899 10.127L104.839 8.36165C103.776 7.79524 102.48 7.54545 101.011 7.54545V9.54545ZM103.904 10.1294C104.615 10.5034 105.108 10.9965 105.426 11.607L107.199 10.6827C106.677 9.6796 105.874 8.90567 104.835 8.35927L103.904 10.1294ZM105.426 11.607C105.763 12.2535 105.943 13.009 105.943 13.8977H107.943C107.943 12.7296 107.703 11.6499 107.199 10.6827L105.426 11.607ZM105.943 13.8977C105.943 14.7867 105.762 15.5342 105.428 16.1662L107.197 17.1008C107.703 16.1419 107.943 15.0655 107.943 13.8977H105.943ZM105.428 16.1662C105.111 16.7665 104.621 17.2527 103.914 17.6224L104.841 19.3947C105.873 18.8552 106.673 18.0915 107.197 17.1008L105.428 16.1662ZM103.919 17.62C103.235 17.9731 102.296 18.1818 101.045 18.1818V20.1818C102.5 20.1818 103.782 19.9417 104.837 19.3971L103.919 17.62ZM101.045 18.1818H96.2727V20.1818H101.045V18.1818ZM97.2727 19.1818V17.2727H95.2727V19.1818H97.2727ZM96.2727 18.2727H100.977V16.2727H96.2727V18.2727ZM100.977 18.2727C101.993 18.2727 102.908 18.1262 103.66 17.7652L102.795 15.9621C102.41 16.1466 101.825 16.2727 100.977 16.2727V18.2727ZM103.657 17.7668C104.402 17.4127 104.993 16.8812 105.362 16.1598L103.581 15.2493C103.439 15.5279 103.201 15.7692 102.798 15.9604L103.657 17.7668ZM105.36 16.1637C105.71 15.4873 105.864 14.7205 105.864 13.8977H103.864C103.864 14.4727 103.756 14.9104 103.583 15.2454L105.36 16.1637ZM105.864 13.8977C105.864 13.0737 105.709 12.3043 105.366 11.6181L103.577 12.5126C103.757 12.8718 103.864 13.324 103.864 13.8977H105.864ZM105.366 11.6181C104.998 10.8818 104.412 10.3298 103.662 9.95892L102.775 11.7513C103.174 11.9486 103.423 12.2034 103.577 12.5126L105.366 11.6181ZM103.669 9.96246C102.906 9.57691 101.975 9.42045 100.943 9.42045V11.4205C101.797 11.4205 102.384 11.5538 102.768 11.7478L103.669 9.96246ZM100.943 9.42045H97.2273V11.4205H100.943V9.42045ZM96.2273 10.4205V26H98.2273V10.4205H96.2273ZM97.2273 25H95.1136V27H97.2273V25ZM102.453 18.6395L106.748 26.4805L108.502 25.5195L104.207 17.6786L102.453 18.6395ZM107.625 25H105.17V27H107.625V25ZM106.051 25.5254L101.823 17.6845L100.063 18.6336L104.29 26.4746L106.051 25.5254ZM100.943 19.1591H103.33V17.1591H100.943V19.1591ZM112.259 25.429L111.723 26.2733L111.726 26.2748L112.259 25.429ZM110.18 23.0682L109.281 23.5073L109.283 23.5114L110.18 23.0682ZM110.18 15.9517L109.282 15.5105L109.28 15.5146L110.18 15.9517ZM112.259 13.5824L111.726 12.7365L111.723 12.7381L112.259 13.5824ZM118.472 13.5824L117.936 14.4267L117.939 14.4283L118.472 13.5824ZM120.552 15.9517L119.652 16.3888L119.654 16.3929L120.552 15.9517ZM120.552 23.0682L119.655 22.625L119.653 22.6291L120.552 23.0682ZM118.472 25.429L117.939 24.5831L117.936 24.5846L118.472 25.429ZM117.586 23.7756L116.964 22.9925L116.964 22.9925L117.586 23.7756ZM118.873 21.9602L119.81 22.3082L119.81 22.3082L118.873 21.9602ZM118.873 17.0767L119.811 16.731L119.811 16.731L118.873 17.0767ZM117.586 15.2443L118.212 14.4649L118.212 14.4649L117.586 15.2443ZM113.154 15.2443L112.528 14.4649L112.528 14.4649L113.154 15.2443ZM111.867 17.0767L110.929 16.731L110.929 16.731L111.867 17.0767ZM111.867 21.9602L110.93 22.3082L110.93 22.3082L111.867 21.9602ZM113.154 23.7756L113.776 22.9925L113.776 22.9925L113.154 23.7756ZM115.37 25.2727C114.354 25.2727 113.506 25.0331 112.793 24.5831L111.726 26.2748C112.796 26.9499 114.023 27.2727 115.37 27.2727V25.2727ZM112.795 24.5846C112.075 24.1277 111.501 23.4849 111.076 22.625L109.283 23.5114C109.858 24.6742 110.671 25.6053 111.723 26.2733L112.795 24.5846ZM111.078 22.6291C110.663 21.7792 110.438 20.7531 110.438 19.5227H108.438C108.438 20.9969 108.708 22.3344 109.281 23.5073L111.078 22.6291ZM110.438 19.5227C110.438 18.2798 110.663 17.2445 111.079 16.3888L109.28 15.5146C108.708 16.693 108.438 18.0384 108.438 19.5227H110.438ZM111.077 16.3929C111.503 15.5273 112.076 14.8828 112.795 14.4267L111.723 12.7381C110.669 13.407 109.857 14.342 109.282 15.5105L111.077 16.3929ZM112.793 14.4283C113.506 13.9783 114.354 13.7386 115.37 13.7386V11.7386C114.023 11.7386 112.796 12.0615 111.726 12.7365L112.793 14.4283ZM115.37 13.7386C116.387 13.7386 117.23 13.9783 117.936 14.4267L119.008 12.7381C117.942 12.0615 116.717 11.7386 115.37 11.7386V13.7386ZM117.939 14.4283C118.662 14.8841 119.234 15.5269 119.652 16.3888L121.451 15.5146C120.882 14.3424 120.067 13.4057 119.006 12.7365L117.939 14.4283ZM119.654 16.3929C120.075 17.2475 120.302 18.2814 120.302 19.5227H122.302C122.302 18.0368 122.029 16.69 121.449 15.5105L119.654 16.3929ZM120.302 19.5227C120.302 20.7515 120.075 21.7762 119.655 22.625L121.448 23.5114C122.029 22.3375 122.302 20.9985 122.302 19.5227H120.302ZM119.653 22.6291C119.235 23.4853 118.663 24.1264 117.939 24.5831L119.006 26.2748C120.066 25.6066 120.88 24.6738 121.45 23.5073L119.653 22.6291ZM117.936 24.5846C117.23 25.0331 116.387 25.2727 115.37 25.2727V27.2727C116.717 27.2727 117.942 26.9499 119.008 26.2733L117.936 24.5846ZM115.37 25.4659C116.444 25.4659 117.416 25.1874 118.208 24.5587L116.964 22.9925C116.597 23.2842 116.092 23.4659 115.37 23.4659V25.4659ZM118.208 24.5587C118.942 23.9758 119.474 23.215 119.81 22.3082L117.935 21.6122C117.715 22.2055 117.389 22.6549 116.964 22.9925L118.208 24.5587ZM119.81 22.3082C120.134 21.4369 120.29 20.5054 120.29 19.5227H118.29C118.29 20.2901 118.169 20.9836 117.935 21.6122L119.81 22.3082ZM120.29 19.5227C120.29 18.54 120.134 17.6066 119.811 16.731L117.935 17.4224C118.169 18.0582 118.29 18.7555 118.29 19.5227H120.29ZM119.811 16.731C119.476 15.8198 118.945 15.0538 118.212 14.4649L116.959 16.0237C117.386 16.3666 117.713 16.8223 117.935 17.4224L119.811 16.731ZM118.212 14.4649C117.421 13.8284 116.447 13.5455 115.37 13.5455V15.5455C116.089 15.5455 116.592 15.7285 116.959 16.0237L118.212 14.4649ZM115.37 13.5455C114.293 13.5455 113.319 13.8284 112.528 14.4649L113.781 16.0237C114.148 15.7285 114.651 15.5455 115.37 15.5455V13.5455ZM112.528 14.4649C111.795 15.0538 111.265 15.8198 110.929 16.731L112.806 17.4224C113.027 16.8223 113.354 16.3666 113.781 16.0237L112.528 14.4649ZM110.929 16.731C110.606 17.6066 110.45 18.54 110.45 19.5227H112.45C112.45 18.7555 112.571 18.0582 112.806 17.4224L110.929 16.731ZM110.45 19.5227C110.45 20.5054 110.606 21.4369 110.93 22.3082L112.805 21.6122C112.571 20.9836 112.45 20.2901 112.45 19.5227H110.45ZM110.93 22.3082C111.266 23.215 111.798 23.9758 112.532 24.5587L113.776 22.9925C113.351 22.6549 113.025 22.2055 112.805 21.6122L110.93 22.3082ZM112.532 24.5587C113.324 25.1874 114.296 25.4659 115.37 25.4659V23.4659C114.648 23.4659 114.143 23.2842 113.776 22.9925L112.532 24.5587ZM126.58 25.429L126.044 26.2733L126.046 26.2748L126.58 25.429ZM124.5 23.0682L123.602 23.5073L123.604 23.5114L124.5 23.0682ZM124.5 15.9517L123.603 15.5105L123.601 15.5146L124.5 15.9517ZM126.58 13.5824L126.046 12.7365L126.044 12.7381L126.58 13.5824ZM132.793 13.5824L132.257 14.4267L132.259 14.4283L132.793 13.5824ZM134.872 15.9517L133.973 16.3888L133.975 16.3929L134.872 15.9517ZM134.872 23.0682L133.976 22.625L133.974 22.6291L134.872 23.0682ZM132.793 25.429L132.259 24.5831L132.257 24.5846L132.793 25.429ZM131.906 23.7756L131.284 22.9925L131.284 22.9925L131.906 23.7756ZM133.193 21.9602L134.131 22.3082L134.131 22.3082L133.193 21.9602ZM133.193 17.0767L134.132 16.731L134.132 16.731L133.193 17.0767ZM131.906 15.2443L132.533 14.4649L132.533 14.4649L131.906 15.2443ZM127.474 15.2443L126.848 14.4649L126.848 14.4649L127.474 15.2443ZM126.188 17.0767L125.249 16.731L125.249 16.731L126.188 17.0767ZM126.188 21.9602L125.25 22.3082L125.25 22.3082L126.188 21.9602ZM127.474 23.7756L128.096 22.9925L128.096 22.9925L127.474 23.7756ZM129.69 25.2727C128.674 25.2727 127.827 25.0331 127.113 24.5831L126.046 26.2748C127.117 26.9499 128.343 27.2727 129.69 27.2727V25.2727ZM127.115 24.5846C126.395 24.1277 125.822 23.4849 125.396 22.625L123.604 23.5114C124.178 24.6742 124.991 25.6053 126.044 26.2733L127.115 24.5846ZM125.398 22.6291C124.983 21.7792 124.759 20.7531 124.759 19.5227H122.759C122.759 20.9969 123.028 22.3344 123.602 23.5073L125.398 22.6291ZM124.759 19.5227C124.759 18.2798 124.984 17.2445 125.399 16.3888L123.601 15.5146C123.028 16.693 122.759 18.0384 122.759 19.5227H124.759ZM125.397 16.3929C125.823 15.5273 126.397 14.8828 127.115 14.4267L126.044 12.7381C124.99 13.407 124.177 14.342 123.603 15.5105L125.397 16.3929ZM127.113 14.4283C127.827 13.9783 128.674 13.7386 129.69 13.7386V11.7386C128.343 11.7386 127.117 12.0615 126.046 12.7365L127.113 14.4283ZM129.69 13.7386C130.707 13.7386 131.55 13.9783 132.257 14.4267L133.328 12.7381C132.262 12.0615 131.037 11.7386 129.69 11.7386V13.7386ZM132.259 14.4283C132.982 14.8841 133.554 15.5269 133.973 16.3888L135.772 15.5146C135.202 14.3424 134.387 13.4057 133.326 12.7365L132.259 14.4283ZM133.975 16.3929C134.395 17.2475 134.622 18.2814 134.622 19.5227H136.622C136.622 18.0368 136.349 16.69 135.77 15.5105L133.975 16.3929ZM134.622 19.5227C134.622 20.7515 134.395 21.7762 133.976 22.625L135.769 23.5114C136.349 22.3375 136.622 20.9985 136.622 19.5227H134.622ZM133.974 22.6291C133.555 23.4853 132.983 24.1264 132.259 24.5831L133.326 26.2748C134.386 25.6066 135.2 24.6738 135.771 23.5073L133.974 22.6291ZM132.257 24.5846C131.55 25.0331 130.707 25.2727 129.69 25.2727V27.2727C131.037 27.2727 132.262 26.9499 133.328 26.2733L132.257 24.5846ZM129.69 25.4659C130.764 25.4659 131.736 25.1874 132.528 24.5587L131.284 22.9925C130.917 23.2842 130.412 23.4659 129.69 23.4659V25.4659ZM132.528 24.5587C133.262 23.9758 133.794 23.215 134.131 22.3082L132.256 21.6122C132.035 22.2055 131.709 22.6549 131.284 22.9925L132.528 24.5587ZM134.131 22.3082C134.454 21.4369 134.611 20.5054 134.611 19.5227H132.611C132.611 20.2901 132.489 20.9836 132.256 21.6122L134.131 22.3082ZM134.611 19.5227C134.611 18.54 134.454 17.6066 134.132 16.731L132.255 17.4224C132.489 18.0582 132.611 18.7555 132.611 19.5227H134.611ZM134.132 16.731C133.796 15.8198 133.265 15.0538 132.533 14.4649L131.28 16.0237C131.706 16.3666 132.034 16.8223 132.255 17.4224L134.132 16.731ZM132.533 14.4649C131.741 13.8284 130.767 13.5455 129.69 13.5455V15.5455C130.409 15.5455 130.912 15.7285 131.28 16.0237L132.533 14.4649ZM129.69 13.5455C128.614 13.5455 127.64 13.8284 126.848 14.4649L128.101 16.0237C128.468 15.7285 128.972 15.5455 129.69 15.5455V13.5455ZM126.848 14.4649C126.115 15.0538 125.585 15.8198 125.249 16.731L127.126 17.4224C127.347 16.8223 127.674 16.3666 128.101 16.0237L126.848 14.4649ZM125.249 16.731C124.927 17.6066 124.77 18.54 124.77 19.5227H126.77C126.77 18.7555 126.892 18.0582 127.126 17.4224L125.249 16.731ZM124.77 19.5227C124.77 20.5054 124.927 21.4369 125.25 22.3082L127.125 21.6122C126.892 20.9836 126.77 20.2901 126.77 19.5227H124.77ZM125.25 22.3082C125.587 23.215 126.119 23.9758 126.853 24.5587L128.096 22.9925C127.671 22.6549 127.345 22.2055 127.125 21.6122L125.25 22.3082ZM126.853 24.5587C127.644 25.1874 128.616 25.4659 129.69 25.4659V23.4659C128.969 23.4659 128.464 23.2842 128.096 22.9925L126.853 24.5587ZM138.692 26H137.692V27H138.692V26ZM138.692 12.9091V11.9091H137.692V12.9091H138.692ZM140.636 12.9091H141.636V11.9091H140.636V12.9091ZM140.636 14.9545H139.636V15.9545H140.636V14.9545ZM140.806 14.9545V15.9545H141.489L141.738 15.3181L140.806 14.9545ZM142.127 13.3267L142.664 14.1707L142.669 14.1671L142.127 13.3267ZM146.474 13.3267L145.91 14.1525L145.919 14.1588L146.474 13.3267ZM147.829 14.9545L146.922 15.375L147.19 15.9545H147.829V14.9545ZM147.965 14.9545V15.9545H148.586L148.861 15.3987L147.965 14.9545ZM149.474 13.3438L149.984 14.2038L149.989 14.2006L149.474 13.3438ZM154.758 13.8381L154.056 14.5506L154.059 14.5533L154.758 13.8381ZM155.874 26V27H156.874V26H155.874ZM153.863 26H152.863V27H153.863V26ZM153.07 15.1676L152.453 15.9542L152.453 15.9542L153.07 15.1676ZM149.065 15.3807L149.801 16.0568L149.805 16.053L149.065 15.3807ZM148.306 26V27H149.306V26H148.306ZM146.261 26H145.261V27H146.261V26ZM145.536 15.2358L144.846 15.9597L144.851 15.964L145.536 15.2358ZM142.204 14.9631L141.682 14.1103L141.677 14.1133L142.204 14.9631ZM141.113 16.1222L140.242 15.6314L140.24 15.6348L141.113 16.1222ZM140.704 26V27H141.704V26H140.704ZM139.692 26V12.9091H137.692V26H139.692ZM138.692 13.9091H140.636V11.9091H138.692V13.9091ZM139.636 12.9091V14.9545H141.636V12.9091H139.636ZM140.636 15.9545H140.806V13.9545H140.636V15.9545ZM141.738 15.3181C141.937 14.8085 142.243 14.438 142.663 14.1707L141.591 12.4827C140.796 12.9881 140.221 13.7028 139.875 14.591L141.738 15.3181ZM142.669 14.1671C143.089 13.8966 143.623 13.7386 144.317 13.7386V11.7386C143.308 11.7386 142.382 11.9727 141.585 12.4863L142.669 14.1671ZM144.317 13.7386C145.029 13.7386 145.538 13.8988 145.91 14.1524L147.038 12.501C146.261 11.9705 145.333 11.7386 144.317 11.7386V13.7386ZM145.919 14.1588C146.329 14.4324 146.667 14.825 146.922 15.375L148.736 14.5341C148.343 13.6864 147.777 12.9937 147.028 12.4947L145.919 14.1588ZM147.829 15.9545H147.965V13.9545H147.829V15.9545ZM148.861 15.3987C149.108 14.9015 149.474 14.5065 149.984 14.2038L148.964 12.4837C148.133 12.9765 147.493 13.6553 147.069 14.5103L148.861 15.3987ZM149.989 14.2006C150.476 13.9079 151.094 13.7386 151.886 13.7386V11.7386C150.803 11.7386 149.813 11.9728 148.958 12.4869L149.989 14.2006ZM151.886 13.7386C152.828 13.7386 153.522 14.0247 154.056 14.5506L155.459 13.1255C154.505 12.1855 153.284 11.7386 151.886 11.7386V13.7386ZM154.059 14.5533C154.535 15.0183 154.874 15.8393 154.874 17.2386H156.874C156.874 15.5584 156.469 14.1124 155.457 13.1228L154.059 14.5533ZM154.874 17.2386V26H156.874V17.2386H154.874ZM155.874 25H153.863V27H155.874V25ZM154.863 26V17.2386H152.863V26H154.863ZM154.863 17.2386C154.863 16.1063 154.55 15.0579 153.688 14.381L152.453 15.9542C152.647 16.1069 152.863 16.4392 152.863 17.2386H154.863ZM153.688 14.381C152.971 13.8186 152.128 13.5455 151.204 13.5455V15.5455C151.712 15.5455 152.113 15.6871 152.453 15.9542L153.688 14.381ZM151.204 13.5455C150.07 13.5455 149.061 13.8973 148.324 14.7084L149.805 16.053C150.08 15.7505 150.497 15.5455 151.204 15.5455V13.5455ZM148.328 14.7046C147.63 15.4648 147.306 16.4158 147.306 17.4773H149.306C149.306 16.8455 149.488 16.3988 149.801 16.0568L148.328 14.7046ZM147.306 17.4773V26H149.306V17.4773H147.306ZM148.306 25H146.261V27H148.306V25ZM147.261 26V17.0341H145.261V26H147.261ZM147.261 17.0341C147.261 16.0512 146.931 15.1752 146.222 14.5076L144.851 15.964C145.107 16.2055 145.261 16.5283 145.261 17.0341H147.261ZM146.226 14.5119C145.531 13.8491 144.649 13.5455 143.67 13.5455V15.5455C144.213 15.5455 144.576 15.702 144.846 15.9597L146.226 14.5119ZM143.67 13.5455C142.959 13.5455 142.29 13.7376 141.682 14.1103L142.726 15.8158C143.027 15.6317 143.335 15.5455 143.67 15.5455V13.5455ZM141.677 14.1133C141.074 14.487 140.596 15.0015 140.242 15.6314L141.984 16.6129C142.186 16.2542 142.436 15.996 142.731 15.8129L141.677 14.1133ZM140.24 15.6348C139.872 16.2931 139.704 17.031 139.704 17.8182H141.704C141.704 17.3213 141.808 16.9284 141.986 16.6095L140.24 15.6348ZM139.704 17.8182V26H141.704V17.8182H139.704ZM140.704 25H138.692V27H140.704V25Z" fill="#E4626E"/>
<path d="M15.9545 8.54545V26H13.9091L4.39773 12.2955H4.22727V26H2.11364V8.54545H4.15909L13.7045 22.2841H13.875V8.54545H15.9545ZM25.3999 26.2727C24.1385 26.2727 23.0504 25.9943 22.1357 25.4375C21.2266 24.875 20.5249 24.0909 20.0305 23.0852C19.5419 22.0739 19.2976 20.8977 19.2976 19.5568C19.2976 18.2159 19.5419 17.0341 20.0305 16.0114C20.5249 14.983 21.2124 14.1818 22.093 13.608C22.9794 13.0284 24.0135 12.7386 25.1953 12.7386C25.8771 12.7386 26.5504 12.8523 27.2152 13.0795C27.88 13.3068 28.4851 13.6761 29.0305 14.1875C29.576 14.6932 30.0107 15.3636 30.3345 16.1989C30.6584 17.0341 30.8203 18.0625 30.8203 19.2841V20.1364H20.7294V18.3977H28.7749C28.7749 17.6591 28.6271 17 28.3317 16.4205C28.0419 15.8409 27.6271 15.3835 27.0874 15.0483C26.5533 14.7131 25.9226 14.5455 25.1953 14.5455C24.3942 14.5455 23.701 14.7443 23.1158 15.142C22.5362 15.5341 22.0902 16.0455 21.7777 16.6761C21.4652 17.3068 21.3089 17.983 21.3089 18.7045V19.8636C21.3089 20.8523 21.4794 21.6903 21.8203 22.3778C22.1669 23.0597 22.647 23.5795 23.2607 23.9375C23.8743 24.2898 24.5874 24.4659 25.3999 24.4659C25.9283 24.4659 26.4055 24.392 26.8317 24.2443C27.2635 24.0909 27.6357 23.8636 27.9482 23.5625C28.2607 23.2557 28.5021 22.875 28.6726 22.4205L30.6158 22.9659C30.4112 23.625 30.0675 24.2045 29.5845 24.7045C29.1016 25.1989 28.505 25.5852 27.7947 25.8636C27.0845 26.1364 26.2862 26.2727 25.3999 26.2727ZM35.755 21.2273L35.7209 18.7386H36.13L41.8572 12.9091H44.3459L38.2436 19.0795H38.0732L35.755 21.2273ZM33.88 26V8.54545H35.8913V26H33.88ZM42.1982 26L37.0845 19.5227L38.5163 18.125L44.755 26H42.1982ZM51.7138 26.2727C50.532 26.2727 49.495 25.9915 48.603 25.429C47.7166 24.8665 47.0234 24.0795 46.5234 23.0682C46.0291 22.0568 45.782 20.875 45.782 19.5227C45.782 18.1591 46.0291 16.9687 46.5234 15.9517C47.0234 14.9347 47.7166 14.1449 48.603 13.5824C49.495 13.0199 50.532 12.7386 51.7138 12.7386C52.8956 12.7386 53.9297 13.0199 54.8161 13.5824C55.7081 14.1449 56.4013 14.9347 56.8956 15.9517C57.3956 16.9687 57.6456 18.1591 57.6456 19.5227C57.6456 20.875 57.3956 22.0568 56.8956 23.0682C56.4013 24.0795 55.7081 24.8665 54.8161 25.429C53.9297 25.9915 52.8956 26.2727 51.7138 26.2727ZM51.7138 24.4659C52.6115 24.4659 53.3501 24.2358 53.9297 23.7756C54.5092 23.3153 54.9382 22.7102 55.2166 21.9602C55.495 21.2102 55.6342 20.3977 55.6342 19.5227C55.6342 18.6477 55.495 17.8324 55.2166 17.0767C54.9382 16.321 54.5092 15.7102 53.9297 15.2443C53.3501 14.7784 52.6115 14.5455 51.7138 14.5455C50.8161 14.5455 50.0774 14.7784 49.4979 15.2443C48.9183 15.7102 48.4893 16.321 48.2109 17.0767C47.9325 17.8324 47.7933 18.6477 47.7933 19.5227C47.7933 20.3977 47.9325 21.2102 48.2109 21.9602C48.4893 22.7102 48.9183 23.3153 49.4979 23.7756C50.0774 24.2358 50.8161 24.4659 51.7138 24.4659Z" fill="#E4626E"/>
<path d="M15.9545 8.54545H16.9545V7.54545H15.9545V8.54545ZM15.9545 26V27H16.9545V26H15.9545ZM13.9091 26L13.0876 26.5702L13.3859 27H13.9091V26ZM4.39773 12.2955L5.21926 11.7253L4.92094 11.2955H4.39773V12.2955ZM4.22727 12.2955V11.2955H3.22727V12.2955H4.22727ZM4.22727 26V27H5.22727V26H4.22727ZM2.11364 26H1.11364V27H2.11364V26ZM2.11364 8.54545V7.54545H1.11364V8.54545H2.11364ZM4.15909 8.54545L4.98033 7.97487L4.68198 7.54545H4.15909V8.54545ZM13.7045 22.2841L12.8833 22.8547L13.1817 23.2841H13.7045V22.2841ZM13.875 22.2841V23.2841H14.875V22.2841H13.875ZM13.875 8.54545V7.54545H12.875V8.54545H13.875ZM14.9545 8.54545V26H16.9545V8.54545H14.9545ZM15.9545 25H13.9091V27H15.9545V25ZM14.7306 25.4298L5.21926 11.7253L3.5762 12.8656L13.0876 26.5702L14.7306 25.4298ZM4.39773 11.2955H4.22727V13.2955H4.39773V11.2955ZM3.22727 12.2955V26H5.22727V12.2955H3.22727ZM4.22727 25H2.11364V27H4.22727V25ZM3.11364 26V8.54545H1.11364V26H3.11364ZM2.11364 9.54545H4.15909V7.54545H2.11364V9.54545ZM3.33785 9.11604L12.8833 22.8547L14.5258 21.7135L4.98033 7.97487L3.33785 9.11604ZM13.7045 23.2841H13.875V21.2841H13.7045V23.2841ZM14.875 22.2841V8.54545H12.875V22.2841H14.875ZM13.875 9.54545H15.9545V7.54545H13.875V9.54545ZM22.1357 25.4375L21.6095 26.2879L21.6157 26.2917L22.1357 25.4375ZM20.0305 23.0852L19.1301 23.5203L19.1331 23.5263L20.0305 23.0852ZM20.0305 16.0114L19.1292 15.5781L19.1282 15.5803L20.0305 16.0114ZM22.093 13.608L22.639 14.4458L22.6403 14.4449L22.093 13.608ZM27.2152 13.0795L27.5387 12.1333L27.5387 12.1333L27.2152 13.0795ZM29.0305 14.1875L28.3466 14.917L28.3507 14.9208L29.0305 14.1875ZM30.3345 16.1989L31.2669 15.8373L31.2669 15.8373L30.3345 16.1989ZM30.8203 20.1364V21.1364H31.8203V20.1364H30.8203ZM20.7294 20.1364H19.7294V21.1364H20.7294V20.1364ZM20.7294 18.3977V17.3977H19.7294V18.3977H20.7294ZM28.7749 18.3977V19.3977H29.7749V18.3977H28.7749ZM28.3317 16.4205L27.4372 16.8677L27.4408 16.8746L28.3317 16.4205ZM27.0874 15.0483L26.5557 15.8953L26.5598 15.8978L27.0874 15.0483ZM23.1158 15.142L23.6761 15.9703L23.6779 15.9691L23.1158 15.142ZM21.7777 16.6761L20.8817 16.2322L20.8817 16.2322L21.7777 16.6761ZM21.8203 22.3778L20.9244 22.8221L20.9289 22.831L21.8203 22.3778ZM23.2607 23.9375L22.7568 24.8013L22.7628 24.8048L23.2607 23.9375ZM26.8317 24.2443L27.1592 25.1892L27.1664 25.1866L26.8317 24.2443ZM27.9482 23.5625L28.6421 24.2826L28.6487 24.2761L27.9482 23.5625ZM28.6726 22.4205L28.9428 21.4577L28.0587 21.2095L27.7363 22.0693L28.6726 22.4205ZM30.6158 22.9659L31.5708 23.2623L31.8754 22.2808L30.886 22.0031L30.6158 22.9659ZM29.5845 24.7045L30.2998 25.4034L30.3038 25.3993L29.5845 24.7045ZM27.7947 25.8636L28.1532 26.7972L28.1597 26.7947L27.7947 25.8636ZM25.3999 25.2727C24.2889 25.2727 23.3877 25.0289 22.6556 24.5833L21.6157 26.2917C22.7131 26.9597 23.9881 27.2727 25.3999 27.2727V25.2727ZM22.6618 24.5871C21.9204 24.1283 21.3436 23.4897 20.928 22.6441L19.1331 23.5263C19.7061 24.6921 20.5328 25.6217 21.6095 26.2879L22.6618 24.5871ZM20.931 22.6502C20.5194 21.7983 20.2976 20.7759 20.2976 19.5568H18.2976C18.2976 21.0195 18.5644 22.3494 19.1301 23.5203L20.931 22.6502ZM20.2976 19.5568C20.2976 18.338 20.5192 17.3081 20.9328 16.4425L19.1282 15.5803C18.5646 16.7601 18.2976 18.0938 18.2976 19.5568H20.2976ZM20.9318 16.4446C21.3539 15.5664 21.9245 14.9113 22.639 14.4458L21.5471 12.7701C20.5002 13.4523 19.6958 14.3995 19.1293 15.5781L20.9318 16.4446ZM22.6403 14.4449C23.3455 13.9838 24.1845 13.7386 25.1953 13.7386V11.7386C23.8424 11.7386 22.6133 12.073 21.5458 12.771L22.6403 14.4449ZM25.1953 13.7386C25.7637 13.7386 26.3279 13.833 26.8917 14.0258L27.5387 12.1333C26.773 11.8715 25.9905 11.7386 25.1953 11.7386V13.7386ZM26.8917 14.0258C27.4138 14.2043 27.8978 14.4963 28.3466 14.917L29.7145 13.458C29.0724 12.856 28.3461 12.4094 27.5387 12.1333L26.8917 14.0258ZM28.3507 14.9208C28.7644 15.3044 29.1221 15.8381 29.4022 16.5604L31.2669 15.8373C30.8992 14.8892 30.3876 14.082 29.7104 13.4542L28.3507 14.9208ZM29.4022 16.5604C29.6683 17.2467 29.8203 18.1441 29.8203 19.2841H31.8203C31.8203 17.9809 31.6485 16.8214 31.2669 15.8373L29.4022 16.5604ZM29.8203 19.2841V20.1364H31.8203V19.2841H29.8203ZM30.8203 19.1364H20.7294V21.1364H30.8203V19.1364ZM21.7294 20.1364V18.3977H19.7294V20.1364H21.7294ZM20.7294 19.3977H28.7749V17.3977H20.7294V19.3977ZM29.7749 18.3977C29.7749 17.5228 29.5989 16.7045 29.2226 15.9663L27.4408 16.8746C27.6553 17.2955 27.7749 17.7954 27.7749 18.3977H29.7749ZM29.2261 15.9732C28.8553 15.2317 28.3151 14.6336 27.6149 14.1988L26.5598 15.8978C26.9392 16.1334 27.2285 16.4501 27.4372 16.8677L29.2261 15.9732ZM27.619 14.2013C26.9024 13.7515 26.0812 13.5455 25.1953 13.5455V15.5455C25.764 15.5455 26.2042 15.6746 26.5557 15.8953L27.619 14.2013ZM25.1953 13.5455C24.2211 13.5455 23.326 13.7901 22.5537 14.315L23.6779 15.9691C24.076 15.6986 24.5672 15.5455 25.1953 15.5455V13.5455ZM22.5555 14.3138C21.8318 14.8033 21.2705 15.4475 20.8817 16.2322L22.6737 17.1201C22.9099 16.6434 23.2407 16.2649 23.6761 15.9703L22.5555 14.3138ZM20.8817 16.2322C20.499 17.0044 20.3089 17.8329 20.3089 18.7045H22.3089C22.3089 18.133 22.4314 17.6092 22.6737 17.1201L20.8817 16.2322ZM20.3089 18.7045V19.8636H22.3089V18.7045H20.3089ZM20.3089 19.8636C20.3089 20.9634 20.4982 21.9626 20.9244 22.8221L22.7162 21.9336C22.4606 21.4181 22.3089 20.7411 22.3089 19.8636H20.3089ZM20.9289 22.831C21.3556 23.6704 21.9644 24.3391 22.7568 24.8013L23.7645 23.0737C23.3296 22.82 22.9782 22.449 22.7117 21.9247L20.9289 22.831ZM22.7628 24.8048C23.5492 25.2562 24.4389 25.4659 25.3999 25.4659V23.4659C24.7358 23.4659 24.1994 23.3233 23.7585 23.0702L22.7628 24.8048ZM25.3999 25.4659C26.0211 25.4659 26.6114 25.3791 27.1592 25.1892L26.5041 23.2995C26.1997 23.405 25.8355 23.4659 25.3999 23.4659V25.4659ZM27.1664 25.1866C27.7248 24.9883 28.2213 24.688 28.642 24.2826L27.2543 22.8424C27.05 23.0393 26.8022 23.1936 26.4969 23.302L27.1664 25.1866ZM28.6487 24.2761C29.0761 23.8564 29.3929 23.3477 29.6089 22.7716L27.7363 22.0693C27.6114 22.4023 27.4452 22.6549 27.2476 22.8489L28.6487 24.2761ZM28.4023 23.3832L30.3455 23.9287L30.886 22.0031L28.9428 21.4577L28.4023 23.3832ZM29.6607 22.6695C29.5029 23.1781 29.2404 23.6215 28.8653 24.0098L30.3038 25.3993C30.8946 24.7876 31.3196 24.0719 31.5708 23.2623L29.6607 22.6695ZM28.8692 24.0057C28.4952 24.3886 28.0219 24.7005 27.4298 24.9326L28.1597 26.7947C28.988 26.47 29.708 26.0091 30.2998 25.4034L28.8692 24.0057ZM27.4363 24.9301C26.8577 25.1523 26.1836 25.2727 25.3999 25.2727V27.2727C26.3889 27.2727 27.3114 27.1204 28.1532 26.7972L27.4363 24.9301ZM35.755 21.2273L34.7551 21.241L34.7859 23.4883L36.4346 21.9608L35.755 21.2273ZM35.7209 18.7386V17.7386H34.7071L34.721 18.7523L35.7209 18.7386ZM36.13 18.7386V19.7386H36.5494L36.8433 19.4395L36.13 18.7386ZM41.8572 12.9091V11.9091H41.4378L41.1439 12.2083L41.8572 12.9091ZM44.3459 12.9091L45.0569 13.6123L46.7413 11.9091H44.3459V12.9091ZM38.2436 19.0795V20.0795H38.6611L38.9546 19.7827L38.2436 19.0795ZM38.0732 19.0795V18.0795H37.6811L37.3935 18.346L38.0732 19.0795ZM33.88 26H32.88V27H33.88V26ZM33.88 8.54545V7.54545H32.88V8.54545H33.88ZM35.8913 8.54545H36.8913V7.54545H35.8913V8.54545ZM35.8913 26V27H36.8913V26H35.8913ZM42.1982 26L41.4133 26.6196L41.7136 27H42.1982V26ZM37.0845 19.5227L36.386 18.8072L35.7419 19.4359L36.2996 20.1424L37.0845 19.5227ZM38.5163 18.125L39.3002 17.504L38.6115 16.6347L37.8178 17.4094L38.5163 18.125ZM44.755 26V27H46.823L45.5388 25.379L44.755 26ZM36.7549 21.2136L36.7208 18.7249L34.721 18.7523L34.7551 21.241L36.7549 21.2136ZM35.7209 19.7386H36.13V17.7386H35.7209V19.7386ZM36.8433 19.4395L42.5706 13.6099L41.1439 12.2083L35.4166 18.0378L36.8433 19.4395ZM41.8572 13.9091H44.3459V11.9091H41.8572V13.9091ZM43.6349 12.2059L37.5326 18.3764L38.9546 19.7827L45.0569 13.6123L43.6349 12.2059ZM38.2436 18.0795H38.0732V20.0795H38.2436V18.0795ZM37.3935 18.346L35.0753 20.4937L36.4346 21.9608L38.7528 19.8131L37.3935 18.346ZM34.88 26V8.54545H32.88V26H34.88ZM33.88 9.54545H35.8913V7.54545H33.88V9.54545ZM34.8913 8.54545V26H36.8913V8.54545H34.8913ZM35.8913 25H33.88V27H35.8913V25ZM42.983 25.3804L37.8694 18.9031L36.2996 20.1424L41.4133 26.6196L42.983 25.3804ZM37.7831 20.2383L39.2149 18.8406L37.8178 17.4094L36.386 18.8072L37.7831 20.2383ZM37.7325 18.746L43.9711 26.621L45.5388 25.379L39.3002 17.504L37.7325 18.746ZM44.755 25H42.1982V27H44.755V25ZM48.603 25.429L48.0672 26.2733L48.0696 26.2748L48.603 25.429ZM46.5234 23.0682L45.625 23.5073L45.627 23.5114L46.5234 23.0682ZM46.5234 15.9517L45.626 15.5105L45.624 15.5146L46.5234 15.9517ZM48.603 13.5824L48.0696 12.7365L48.0672 12.7381L48.603 13.5824ZM54.8161 13.5824L54.2802 14.4267L54.2827 14.4283L54.8161 13.5824ZM56.8956 15.9517L55.9962 16.3888L55.9982 16.3929L56.8956 15.9517ZM56.8956 23.0682L55.9992 22.625L55.9972 22.6291L56.8956 23.0682ZM54.8161 25.429L54.2827 24.5831L54.2802 24.5846L54.8161 25.429ZM53.9297 23.7756L53.3078 22.9925L53.3078 22.9925L53.9297 23.7756ZM55.2166 21.9602L56.1541 22.3082L56.1541 22.3082L55.2166 21.9602ZM55.2166 17.0767L56.155 16.731L56.155 16.731L55.2166 17.0767ZM53.9297 15.2443L54.5562 14.4649L54.5562 14.4649L53.9297 15.2443ZM49.4979 15.2443L48.8713 14.4649L48.8713 14.4649L49.4979 15.2443ZM48.2109 17.0767L47.2726 16.731L47.2726 16.731L48.2109 17.0767ZM48.2109 21.9602L47.2734 22.3082L47.2734 22.3082L48.2109 21.9602ZM49.4979 23.7756L50.1198 22.9925L50.1198 22.9925L49.4979 23.7756ZM51.7138 25.2727C50.6973 25.2727 49.85 25.0331 49.1364 24.5831L48.0696 26.2748C49.1401 26.9499 50.3666 27.2727 51.7138 27.2727V25.2727ZM49.1388 24.5846C48.4187 24.1277 47.845 23.4849 47.4199 22.625L45.627 23.5114C46.2019 24.6742 47.0145 25.6053 48.0672 26.2733L49.1388 24.5846ZM47.4219 22.6291C47.0065 21.7792 46.782 20.7531 46.782 19.5227H44.782C44.782 20.9969 45.0517 22.3344 45.625 23.5073L47.4219 22.6291ZM46.782 19.5227C46.782 18.2798 47.007 17.2445 47.4228 16.3888L45.624 15.5146C45.0513 16.693 44.782 18.0384 44.782 19.5227H46.782ZM47.4209 16.3929C47.8464 15.5273 48.4201 14.8828 49.1388 14.4267L48.0672 12.7381C47.0131 13.407 46.2005 14.342 45.626 15.5105L47.4209 16.3929ZM49.1364 14.4283C49.85 13.9783 50.6973 13.7386 51.7138 13.7386V11.7386C50.3666 11.7386 49.1401 12.0615 48.0696 12.7365L49.1364 14.4283ZM51.7138 13.7386C52.7304 13.7386 53.5736 13.9783 54.2802 14.4267L55.3519 12.7381C54.2857 12.0615 53.0608 11.7386 51.7138 11.7386V13.7386ZM54.2827 14.4283C55.0055 14.8841 55.5773 15.5269 55.9962 16.3888L57.795 15.5146C57.2253 14.3424 56.4107 13.4057 55.3494 12.7365L54.2827 14.4283ZM55.9982 16.3929C56.4183 17.2475 56.6456 18.2814 56.6456 19.5227H58.6456C58.6456 18.0368 58.3729 16.69 57.793 15.5105L55.9982 16.3929ZM56.6456 19.5227C56.6456 20.7515 56.4188 21.7762 55.9992 22.625L57.792 23.5114C58.3724 22.3375 58.6456 20.9985 58.6456 19.5227H56.6456ZM55.9972 22.6291C55.5787 23.4853 55.0069 24.1264 54.2827 24.5831L55.3494 26.2748C56.4093 25.6066 57.2239 24.6738 57.794 23.5073L55.9972 22.6291ZM54.2802 24.5846C53.5736 25.0331 52.7304 25.2727 51.7138 25.2727V27.2727C53.0608 27.2727 54.2857 26.9499 55.3519 26.2733L54.2802 24.5846ZM51.7138 25.4659C52.7877 25.4659 53.7598 25.1874 54.5516 24.5587L53.3078 22.9925C52.9404 23.2842 52.4353 23.4659 51.7138 23.4659V25.4659ZM54.5516 24.5587C55.2856 23.9758 55.8175 23.215 56.1541 22.3082L54.2791 21.6122C54.0589 22.2055 53.7329 22.6549 53.3078 22.9925L54.5516 24.5587ZM56.1541 22.3082C56.4776 21.4369 56.6342 20.5054 56.6342 19.5227H54.6342C54.6342 20.2901 54.5125 20.9836 54.2791 21.6122L56.1541 22.3082ZM56.6342 19.5227C56.6342 18.54 56.4775 17.6066 56.155 16.731L54.2783 17.4224C54.5125 18.0582 54.6342 18.7555 54.6342 19.5227H56.6342ZM56.155 16.731C55.8193 15.8198 55.2888 15.0538 54.5562 14.4649L53.3031 16.0237C53.7297 16.3666 54.0572 16.8223 54.2783 17.4224L56.155 16.731ZM54.5562 14.4649C53.7644 13.8284 52.7905 13.5455 51.7138 13.5455V15.5455C52.4325 15.5455 52.9359 15.7285 53.3031 16.0237L54.5562 14.4649ZM51.7138 13.5455C50.6371 13.5455 49.6632 13.8284 48.8713 14.4649L50.1244 16.0237C50.4917 15.7285 50.995 15.5455 51.7138 15.5455V13.5455ZM48.8713 14.4649C48.1388 15.0538 47.6083 15.8198 47.2726 16.731L49.1493 17.4224C49.3704 16.8223 49.6979 16.3666 50.1244 16.0237L48.8713 14.4649ZM47.2726 16.731C46.95 17.6066 46.7933 18.54 46.7933 19.5227H48.7933C48.7933 18.7555 48.915 18.0582 49.1493 17.4224L47.2726 16.731ZM46.7933 19.5227C46.7933 20.5054 46.95 21.4369 47.2734 22.3082L49.1484 21.6122C48.9151 20.9836 48.7933 20.2901 48.7933 19.5227H46.7933ZM47.2734 22.3082C47.61 23.215 48.142 23.9758 48.876 24.5587L50.1198 22.9925C49.6947 22.6549 49.3687 22.2055 49.1484 21.6122L47.2734 22.3082ZM48.876 24.5587C49.6677 25.1874 50.6399 25.4659 51.7138 25.4659V23.4659C50.9922 23.4659 50.4871 23.2842 50.1198 22.9925L48.876 24.5587Z" fill="#E4626E"/>
<path d="M88.3525 20.3704L90 19.9807L89.7454 18.9066L88.4192 19.2202C88.4192 19.2022 88.4201 19.1851 88.4201 19.1672C88.4201 17.0848 87.8442 15.187 86.8358 13.5694C87.6801 10.6197 86.1009 6.75827 86.1009 6.75827C86.1009 6.75827 83.2085 7.99218 81.5628 9.48499C79.8888 8.98 78.0004 8.81764 76 8.81764C73.9894 8.81764 72.0907 8.9578 70.4108 9.46191C68.7616 7.97939 65.8991 6.75827 65.8991 6.75827C65.8991 6.75827 64.3191 10.6206 65.1642 13.5703C64.1567 15.1879 63.5791 17.0857 63.5791 19.1672C63.5791 19.1852 63.5808 19.2023 63.5808 19.2202L62.2546 18.9067L62 19.9807L63.6466 20.3704C63.7927 21.6598 64.1755 22.8176 64.7531 23.8388L62.7041 24.6582L63.1134 25.6836L65.3667 24.7821C67.5431 27.6883 71.49 29.2417 76 29.2417C80.5091 29.2417 84.4569 27.6883 86.6333 24.7821L88.8866 25.6836L89.2959 24.6582L87.2468 23.8388C87.8245 22.8176 88.2073 21.6598 88.3525 20.3704Z" fill="#E4626E"/>
</svg>
